<?xml version="1.0" encoding="iso-8859-1"?><!-- Generator: Adobe Illustrator 22.1.0, SVG Export Plug-In . SVG Version: 6.00 Build 0)  --><svg xmlns="http://www.w3.org/2000/svg" xmlns:xlink="http://www.w3.org/1999/xlink" viewBox="0 0 30 30" width="30px" height="30px"><path d="M21,9c0-3.314-2.686-6-6-6S9,5.686,9,9c0,0.169,0,0.831,0,1c0,3.314,2.686,6,6,6s6-2.686,6-6C21,9.831,21,9.169,21,9z"/><path d="M25.625,23.09C24.146,21.168,19.004,19,14.998,19s-9.146,2.167-10.625,4.09C3.459,24.279,4.33,26,5.829,26h18.34C25.668,26,26.539,24.279,25.625,23.09z"/></svg>