<svg fill="#FFFFFF" xmlns="http://www.w3.org/2000/svg"  viewBox="0 0 50 50" width="50px" height="50px"><path d="M 4 1 C 3.447 1 3 1.448 3 2 L 3 10 C 3 10.553 3.447 11 4 11 L 15 11 C 15.553 11 16 10.553 16 10 L 16 2 C 16 1.448 15.553 1 15 1 L 4 1 z M 37.164062 9.5 C 35.289759 9.5 33.707216 10.100433 32.857422 11 L 27 11 A 1.0001 1.0001 0 1 0 27 13 L 32.259766 13 C 32.645045 14.435874 34.65739 15.5 37.164062 15.5 C 38.270063 15.5 38.997172 15.287031 39.451172 14.832031 C 40.016172 14.264031 40.014719 13.463453 40.011719 12.689453 L 40.009766 12.498047 L 40.011719 12.308594 C 40.014719 11.535594 40.017172 10.735969 39.451172 10.167969 C 38.997172 9.7119687 38.272922 9.5 37.169922 9.5 L 37.164062 9.5 z M 2 13 C 1.447 13 1 13.448 1 14 L 1 22 C 1 22.552 1.447 23 2 23 L 11.015625 23 C 11.141625 21.347 12.102 19.217484 14 19.021484 L 14 14 C 14 13.448 13.553 13 13 13 L 2 13 z M 33.248047 16.685547 C 34.111047 23.246547 32.823125 29.604359 29.828125 33.193359 C 28.272125 35.056359 26.401578 36 24.267578 36 C 23.280578 36 22.695906 35.350687 22.378906 34.804688 C 21.522906 33.329687 21.375734 30.4365 23.302734 26.5625 C 22.012734 26.8515 20.394547 27 18.435547 27 C 17.257114 27 14.548266 26.991755 12.748047 26.035156 C 12.564418 25.937694 12.392472 25.829279 12.230469 25.710938 C 11.915435 25.480918 11.640065 25.214349 11.435547 24.894531 C 11.363467 24.927922 11.299313 24.965842 11.228516 25 L 1 25 C 0.447 25 0 25.448 0 26 C 0 26.553 0.447 27 1 27 L 8.140625 27 C 5.1303891 29.545041 4.0970005 32.516944 4.0371094 32.726562 C 3.9621094 32.992562 3.9995781 33.278625 4.1425781 33.515625 C 4.2855781 33.752625 4.5190625 33.920516 4.7890625 33.978516 L 19.869141 38 L 31.058594 38 C 31.023594 37.69 31 37.362 31 37 C 31 31.673 36.14 27 42 27 C 42.181 27 42.352391 27.009578 42.525391 27.017578 C 42.167391 23.010578 40.234813 19.650906 38.507812 17.378906 C 38.093812 17.451906 37.653062 17.5 37.164062 17.5 C 35.690063 17.5 34.351047 17.202547 33.248047 16.685547 z M 14.28125 21 C 14.184077 21 14.090938 21.029755 14 21.076172 C 13.998509 21.076936 13.997583 21.079303 13.996094 21.080078 C 13.882067 21.139256 13.775918 21.234863 13.675781 21.351562 C 13.662059 21.367468 13.648179 21.381642 13.634766 21.398438 C 13.535952 21.522709 13.444734 21.665208 13.365234 21.828125 C 13.265172 22.032233 13.18821 22.260101 13.126953 22.494141 C 13.107622 22.56791 13.098893 22.636507 13.083984 22.710938 C 13.064878 22.805995 13.03673 22.899883 13.025391 22.994141 C 13.033791 22.993923 13.04048 22.988703 13.048828 22.988281 C 13.033436 23.115491 13 23.246564 13 23.367188 C 13 24.385188 14.858547 25 18.435547 25 C 22.014547 25 25 24.386188 25 23.367188 C 25 22.350188 24.426797 21 23.716797 21 L 14.28125 21 z M 42 29 C 37.475 29 33 32.574 33 37 C 33 39.74 34.19 40 35 40 C 36.659 40 36 36.598 40 35 C 41.175 34.531 42.330391 34.384766 43.400391 34.384766 C 45.209391 34.384766 46.774109 34.804688 47.787109 34.804688 C 48.552109 34.804688 49.001953 34.564703 49.001953 33.720703 C 49.000953 32.999703 47.704 29 42 29 z M 43.179688 36.392578 C 42.282688 36.414578 41.479187 36.563422 40.742188 36.857422 C 40.554187 36.932422 40.385562 37.012703 40.226562 37.095703 C 40.087562 37.369703 40 37.673 40 38 C 40 39.103 40.897 40 42 40 C 43.103 40 44 39.103 44 38 C 44 37.339 43.674687 36.756578 43.179688 36.392578 z M 6.1933594 36.421875 C 6.0743594 36.937875 6 37.465 6 38 C 6 41.859 9.141 45 13 45 C 16.172 45 18.853938 42.876516 19.710938 39.978516 C 19.590938 39.969516 19.470516 39.964594 19.353516 39.933594 L 16.78125 39.246094 C 16.25425 40.839094 14.768 42 13 42 C 10.794 42 9 40.206 9 38 C 9 37.723 9.0348437 37.454359 9.0898438 37.193359 L 6.1933594 36.421875 z M 45.732422 36.59375 C 45.898422 37.03375 46 37.504 46 38 C 46 40.206 44.206 42 42 42 C 40.262 42 38.795141 40.880125 38.244141 39.328125 C 38.220141 39.376125 38.196828 39.424656 38.173828 39.472656 C 37.816828 40.207656 37.264 41.317297 36.125 41.779297 C 37.384 43.731297 39.565 45 42 45 C 45.859 45 49 41.859 49 38 C 49 37.545 48.940516 37.096297 48.853516 36.654297 C 48.534516 36.742297 48.190156 36.804688 47.785156 36.804688 C 47.208156 36.804688 46.583875 36.715141 45.921875 36.619141 C 45.861875 36.610141 45.793422 36.60275 45.732422 36.59375 z M 11.029297 37.712891 C 11.015297 37.807891 11 37.902 11 38 C 11 39.103 11.897 40 13 40 C 13.843 40 14.562469 39.472422 14.855469 38.732422 L 11.029297 37.712891 z"/></svg>