<svg fill="#FFFFFF" xmlns="http://www.w3.org/2000/svg"  viewBox="0 0 50 50" width="50px" height="50px"><path d="M 21.724609 2.0019531 C 20.966922 2.0505156 20.275984 2.535625 19.990234 3.296875 C 19.948234 3.408875 19.636141 4.1697813 19.119141 5.4257812 C 19.197141 5.4347813 19.276516 5.4358438 19.353516 5.4648438 C 22.695516 6.7278437 29.123141 9.6635312 34.619141 15.144531 C 40.444141 20.952531 43.4265 27.924344 44.4375 30.652344 C 44.4745 30.751344 44.480375 30.852125 44.484375 30.953125 C 45.849375 30.384125 46.705516 30.024078 46.853516 29.955078 C 47.807516 29.506078 48.247469 28.393922 47.855469 27.419922 C 46.518469 24.090922 43.735328 17.164641 38.361328 11.806641 C 32.257328 5.7196406 24.672187 2.8405156 22.492188 2.1035156 C 22.236937 2.0167656 21.977172 1.9857656 21.724609 2.0019531 z M 18.398438 7.1796875 C 14.971438 15.486688 6.8391719 35.123187 2.0761719 46.617188 C 1.9211719 46.991188 2.0079687 47.419078 2.2929688 47.705078 C 2.4839687 47.897078 2.739 48 3 48 C 3.128 48 3.2578594 47.976781 3.3808594 47.925781 C 4.7938594 47.343781 32.197625 36.055969 42.765625 31.667969 C 42.680625 31.574969 42.6085 31.471656 42.5625 31.347656 C 41.5965 28.743656 38.751031 22.0905 33.207031 16.5625 C 27.780031 11.1505 21.216484 8.3079375 18.646484 7.3359375 C 18.550484 7.2999375 18.474437 7.2386875 18.398438 7.1796875 z M 18.990234 12 C 22.578234 11.972 25.916844 14.454 25.964844 18.5 C 26.005844 22.092 23.052891 25 19.462891 25 C 17.335891 25 15.457484 23.972531 14.271484 22.394531 C 15.820484 18.652531 17.312594 15.048203 18.558594 12.033203 C 18.703594 12.024203 18.843234 12.001 18.990234 12 z M 21 15 A 1 1 0 0 0 21 17 A 1 1 0 0 0 21 15 z M 22 19 A 1 1 0 0 0 22 21 A 1 1 0 0 0 22 19 z M 18 20 A 1 1 0 0 0 18 22 A 1 1 0 0 0 18 20 z M 31.5 24 C 35.09 24 38 26.91 38 30.5 C 38 30.846 37.965109 31.183625 37.912109 31.515625 C 34.973109 32.731625 31.449687 34.186187 27.679688 35.742188 C 26.060688 34.559188 25 32.658 25 30.5 C 25 26.91 27.91 24 31.5 24 z M 30 27 A 1 1 0 0 0 30 29 A 1 1 0 0 0 30 27 z M 34 29 A 1 1 0 0 0 34 31 A 1 1 0 0 0 34 29 z M 29 31 A 1 1 0 0 0 29 33 A 1 1 0 0 0 29 31 z M 16.5 33 C 19.491 33 22.004719 35.022438 22.761719 37.773438 C 18.747719 39.429438 14.647844 41.1185 10.839844 42.6875 C 10.307844 41.7455 10 40.66 10 39.5 C 10 35.91 12.91 33 16.5 33 z M 18 36 A 1 1 0 0 0 18 38 A 1 1 0 0 0 18 36 z M 14 38 A 1 1 0 0 0 14 40 A 1 1 0 0 0 14 38 z"/></svg>