<?xml version="1.0"?><svg fill="#FFFFFF" xmlns="http://www.w3.org/2000/svg"  viewBox="0 0 50 50" width="50px" height="50px">    <path d="M 26.5 2 C 19.8 2 19.1 13.1 19 22 L 29.199219 22 C 29.499219 19.4 30.1 16.699219 30.5 14.699219 C 30.2 14.199219 30 13.6 30 13 L 30 10 C 30 8.5 30.8 7.2 32 6.5 C 30.9 3.8 29.2 2 26.5 2 z M 6 8 C 4.6 8 3.5007812 9.1007813 3.3007812 9.3007812 C 2.9007812 9.7007812 2.9007813 10.299219 3.3007812 10.699219 C 3.7007813 11.099219 4.2992187 11.099219 4.6992188 10.699219 C 4.8992187 10.499219 5.5 10 6 10 C 6.4988761 10 7.8532963 10.398675 9 10.710938 L 9 12 C 8.4 12 8 12.4 8 13 L 8 16 C 6.3 16 5 17.4 5 19 L 5 22 L 17 22 C 17 20.1 17.099219 18 17.199219 16 L 16 16 L 16 13 C 16 12.4 15.6 12 15 12 L 15 9 C 15 8.4 14.6 8 14 8 L 10 8 C 9.5114913 8 9.1700972 8.2729425 9.0546875 8.6953125 C 8.0225413 8.3669062 6.7441273 8 6 8 z M 34 8 C 32.9 8 32 8.9 32 10 L 32 13 C 32 13.5 32.299219 13.9 32.699219 14 C 32.299219 15.7 31.599219 18.9 31.199219 22 L 44.699219 22 C 44.499219 20.4 44.2 18.700391 44 17.400391 C 43.7 15.800391 43.500781 14.700391 43.300781 13.900391 C 43.700781 13.800391 44 13.4 44 13 L 44 10 C 44 8.9 43.1 8 42 8 L 34 8 z M 11 10 L 13 10 L 13 12 L 11 12 L 11 10 z M 28 11 C 27.2 11.9 26.300781 12.8 24.300781 13 C 22.300781 13.2 21.600781 12.099219 22.300781 11.199219 L 28 11 z M 28 17 C 27.2 17.9 26.300781 18.8 24.300781 19 C 22.300781 19.2 21.600781 18.099219 22.300781 17.199219 L 28 17 z M 4 24 C 2.9 24 2 24.9 2 26 L 2 28 C 2 29.1 2.9 30 4 30 L 46 30 C 47.1 30 48 29.1 48 28 L 48 26 C 48 24.9 47.1 24 46 24 L 4 24 z M 5 32 L 5 33 C 5 33.1 4.9996094 33.200781 5.0996094 33.300781 L 8.5996094 44 C 8.9996094 45.2 10.100391 46 11.400391 46 L 38.599609 46 C 39.799609 46 41.000391 45.2 41.400391 44 L 45 33.300781 L 45 33 L 45 32 L 36 32 L 36 39 L 32 39 L 32 32 L 27 32 L 27 39 L 23 39 L 23 32 L 18 32 L 18 39 L 14 39 L 14 32 L 5 32 z"/></svg>